ffmpeg started on 2025-05-26 at 18:57:24
Report written to "D:\Convert\FFMetrics\reports\psnr_report-6.txt"
Log level: 32
Command line:
ffmpeg -hide_banner -nostdin -i "G:\\\xc0\xed\xe8\xec\xe5\\\xce\xed\xe3\xee\xe8\xed\xe3\xe8\\!_34_\xc2\xe5\xf1\xed\xe0_2024\\DreamCast\\\xc7\xe0\xe1\xe2\xe5\xed\xe8\xe5 \xe1\xfd\xf2\xf2\xe5\xf0\xe8\\[DC] Boukyaku Battery - 12_Telegram_HEVC.mkv" -i "G:\\\xc0\xed\xe8\xec\xe5\\\xce\xed\xe3\xee\xe8\xed\xe3\xe8\\!_34_\xc2\xe5\xf1\xed\xe0_2024\\DreamCast\\\xc7\xe0\xe1\xe2\xe5\xed\xe8\xe5 \xe1\xfd\xf2\xf2\xe5\xf0\xe8\\[DC] Boukyaku Battery - 12_Telegram.mp4" -lavfi "[0:v]settb=AVTB,setpts=PTS-STARTPTS,format=pix_fmts=yuv420p10,fps=24000/1001,scale=1920:1080:flags=bicubic[main];[1:v]settb=AVTB,setpts=PTS-STARTPTS,format=pix_fmts=yuv420p,fps=24000/1001,scale=1920:1080:flags=bicubic[ref];[main][ref]psnr=eof_action=endall:stats_file='D\\:/Convert/FFMetrics/logs/psnr_logfile-6.txt'" -f null -
Input #0, matroska,webm, from 'G:\Аниме\Онгоинги\!_34_Весна_2024\DreamCast\Забвение бэттери\[DC] Boukyaku Battery - 12_Telegram_HEVC.mkv':
  Metadata:
    COMPATIBLE_BRANDS: isomiso2avc1mp41
    MAJOR_BRAND     : isom
    MINOR_VERSION   : 512
    ENCODER         : Lavf61.7.100
  Duration: 00:24:01.75, start: -0.021000, bitrate: 1197 kb/s
  Stream #0:0: Video: hevc (Main 10), yuv420p10le(tv, bt709, progressive), 1920x1080 [SAR 1:1 DAR 16:9], 23.98 fps, 23.98 tbr, 1k tbn (default)
      Metadata:
        HANDLER_NAME    : VideoHandler
        VENDOR_ID       : [0][0][0][0]
        ENCODER         : Lavc61.19.100 libx265
        BPS             : 1001005
        DURATION        : 00:24:01.564708333
        NUMBER_OF_FRAMES: 34563
        NUMBER_OF_BYTES : 180376600
        _STATISTICS_WRITING_APP: mkvpropedit v66.0.0 ('Josie') 64-bit
        _STATISTICS_WRITING_DATE_UTC: 2025-05-26 12:22:38
        _STATISTICS_TAGS: BPS DURATION NUMBER_OF_FRAMES NUMBER_OF_BYTES
  Stream #0:1: Audio: aac (LC), 48000 Hz, stereo, fltp (default)
      Metadata:
        HANDLER_NAME    : SoundHandler
        VENDOR_ID       : [0][0][0][0]
        ENCODER         : Lavc61.19.100 aac
        BPS             : 192816
        DURATION        : 00:24:01.749000000
        NUMBER_OF_FRAMES: 67583
        NUMBER_OF_BYTES : 34749193
        _STATISTICS_WRITING_APP: mkvpropedit v66.0.0 ('Josie') 64-bit
        _STATISTICS_WRITING_DATE_UTC: 2025-05-26 12:22:38
        _STATISTICS_TAGS: BPS DURATION NUMBER_OF_FRAMES NUMBER_OF_BYTES
Input #1, mov,mp4,m4a,3gp,3g2,mj2, from 'G:\Аниме\Онгоинги\!_34_Весна_2024\DreamCast\Забвение бэттери\[DC] Boukyaku Battery - 12_Telegram.mp4':
  Metadata:
    major_brand     : isom
    minor_version   : 512
    compatible_brands: isomiso2avc1mp41
    encoder         : Lavf61.1.100
  Duration: 00:24:01.70, start: 0.000000, bitrate: 3891 kb/s
  Stream #1:0[0x1](und): Video: h264 (High) (avc1 / 0x31637661), yuv420p(tv, bt709, progressive), 1920x1080 [SAR 1:1 DAR 16:9], 3743 kb/s, 23.98 fps, 23.98 tbr, 24k tbn (default)
      Metadata:
        handler_name    : VideoHandler
        vendor_id       : [0][0][0][0]
        encoder         : Lavc61.3.100 h264_qsv
  Stream #1:1[0x2](und): Audio: aac (HE-AACv2) (mp4a / 0x6134706D), 48000 Hz, stereo, fltp, 144 kb/s (default)
      Metadata:
        handler_name    : SoundHandler
        vendor_id       : [0][0][0][0]
Stream mapping:
  Stream #0:0 (hevc) -> settb:default
  Stream #1:0 (h264) -> settb:default
  psnr:default -> Stream #0:0 (wrapped_avframe)
  Stream #0:1 -> #0:1 (aac (native) -> pcm_s16le (native))
Output #0, null, to 'pipe:':
  Metadata:
    COMPATIBLE_BRANDS: isomiso2avc1mp41
    MAJOR_BRAND     : isom
    MINOR_VERSION   : 512
    encoder         : Lavf61.7.100
  Stream #0:0: Video: wrapped_avframe, yuv420p10le(tv, bt709, progressive), 1920x1080 [SAR 1:1 DAR 16:9], q=2-31, 200 kb/s, 23.98 fps, 23.98 tbn
      Metadata:
        encoder         : Lavc61.19.100 wrapped_avframe
  Stream #0:1: Audio: pcm_s16le, 48000 Hz, stereo, s16, 1536 kb/s (default)
      Metadata:
        HANDLER_NAME    : SoundHandler
        VENDOR_ID       : [0][0][0][0]
        _STATISTICS_TAGS: BPS DURATION NUMBER_OF_FRAMES NUMBER_OF_BYTES
        BPS             : 192816
        DURATION        : 00:24:01.749000000
        NUMBER_OF_FRAMES: 67583
        NUMBER_OF_BYTES : 34749193
        _STATISTICS_WRITING_APP: mkvpropedit v66.0.0 ('Josie') 64-bit
        _STATISTICS_WRITING_DATE_UTC: 2025-05-26 12:22:38
        encoder         : Lavc61.19.100 pcm_s16le
frame=  172 fps=0.0 q=-0.0 size=N/A time=00:00:07.17 bitrate=N/A speed=  14x    frame=  405 fps=390 q=-0.0 size=N/A time=00:00:16.89 bitrate=N/A speed=16.3x    frame=  648 fps=419 q=-0.0 size=N/A time=00:00:27.02 bitrate=N/A speed=17.5x    frame=  855 fps=413 q=-0.0 size=N/A time=00:00:35.66 bitrate=N/A speed=17.2x    frame= 1061 fps=412 q=-0.0 size=N/A time=00:00:44.25 bitrate=N/A speed=17.2x    frame= 1273 fps=411 q=-0.0 size=N/A time=00:00:53.09 bitrate=N/A speed=17.1x    frame= 1468 fps=407 q=-0.0 size=N/A time=00:01:01.22 bitrate=N/A speed=  17x    frame= 1659 fps=401 q=-0.0 size=N/A time=00:01:09.19 bitrate=N/A speed=16.7x    frame= 1877 fps=404 q=-0.0 size=N/A time=00:01:18.28 bitrate=N/A speed=16.9x    frame= 2068 fps=401 q=-0.0 size=N/A time=00:01:26.25 bitrate=N/A speed=16.7x    frame= 2271 fps=400 q=-0.0 size=N/A time=00:01:34.71 bitrate=N/A speed=16.7x    frame= 2512 fps=405 q=-0.0 size=N/A time=00:01:44.77 bitrate=N/A speed=16.9x    frame= 2730 fps=407 q=-0.0 size=N/A time=00:01:53.86 bitrate=N/A speed=  17x    frame= 2962 fps=410 q=-0.0 size=N/A time=00:02:03.54 bitrate=N/A speed=17.1x    frame= 3196 fps=413 q=-0.0 size=N/A time=00:02:13.29 bitrate=N/A speed=17.2x    frame= 3471 fps=421 q=-0.0 size=N/A time=00:02:24.76 bitrate=N/A speed=17.5x    frame= 3713 fps=424 q=-0.0 size=N/A time=00:02:34.86 bitrate=N/A speed=17.7x    frame= 3981 fps=429 q=-0.0 size=N/A time=00:02:46.04 bitrate=N/A speed=17.9x    frame= 4261 fps=435 q=-0.0 size=N/A time=00:02:57.71 bitrate=N/A speed=18.1x    frame= 4522 fps=438 q=-0.0 size=N/A time=00:03:08.60 bitrate=N/A speed=18.3x    frame= 4776 fps=441 q=-0.0 size=N/A time=00:03:19.19 bitrate=N/A speed=18.4x    frame= 5011 fps=442 q=-0.0 size=N/A time=00:03:29.00 bitrate=N/A speed=18.4x    frame= 5223 fps=440 q=-0.0 size=N/A time=00:03:37.84 bitrate=N/A speed=18.4x    frame= 5486 fps=443 q=-0.0 size=N/A time=00:03:48.81 bitrate=N/A speed=18.5x    frame= 5748 fps=446 q=-0.0 size=N/A time=00:03:59.73 bitrate=N/A speed=18.6x    frame= 5940 fps=443 q=-0.0 size=N/A time=00:04:07.74 bitrate=N/A speed=18.5x    frame= 6160 fps=442 q=-0.0 size=N/A time=00:04:16.92 bitrate=N/A speed=18.4x    frame= 6367 fps=441 q=-0.0 size=N/A time=00:04:25.55 bitrate=N/A speed=18.4x    frame= 6579 fps=440 q=-0.0 size=N/A time=00:04:34.39 bitrate=N/A speed=18.3x    frame= 6782 fps=438 q=-0.0 size=N/A time=00:04:42.86 bitrate=N/A speed=18.3x    frame= 7013 fps=439 q=-0.0 size=N/A time=00:04:52.50 bitrate=N/A speed=18.3x    frame= 7262 fps=440 q=-0.0 size=N/A time=00:05:02.88 bitrate=N/A speed=18.3x    frame= 7489 fps=440 q=-0.0 size=N/A time=00:05:12.35 bitrate=N/A speed=18.4x    frame= 7719 fps=440 q=-0.0 size=N/A time=00:05:21.94 bitrate=N/A speed=18.4x    frame= 7981 fps=442 q=-0.0 size=N/A time=00:05:32.87 bitrate=N/A speed=18.4x    frame= 8238 fps=444 q=-0.0 size=N/A time=00:05:43.59 bitrate=N/A speed=18.5x    frame= 8486 fps=445 q=-0.0 size=N/A time=00:05:53.93 bitrate=N/A speed=18.6x    frame= 8744 fps=446 q=-0.0 size=N/A time=00:06:04.69 bitrate=N/A speed=18.6x    frame= 9006 fps=448 q=-0.0 size=N/A time=00:06:15.62 bitrate=N/A speed=18.7x    frame= 9224 fps=447 q=-0.0 size=N/A time=00:06:24.71 bitrate=N/A speed=18.7x    frame= 9474 fps=448 q=-0.0 size=N/A time=00:06:35.14 bitrate=N/A speed=18.7x    frame= 9724 fps=449 q=-0.0 size=N/A time=00:06:45.57 bitrate=N/A speed=18.7x    frame= 9978 fps=450 q=-0.0 size=N/A time=00:06:56.16 bitrate=N/A speed=18.8x    frame=10232 fps=451 q=-0.0 size=N/A time=00:07:06.75 bitrate=N/A speed=18.8x    frame=10496 fps=452 q=-0.0 size=N/A time=00:07:17.77 bitrate=N/A speed=18.9x    frame=10777 fps=454 q=-0.0 size=N/A time=00:07:29.49 bitrate=N/A speed=  19x    frame=11031 fps=455 q=-0.0 size=N/A time=00:07:40.08 bitrate=N/A speed=  19x    frame=11292 fps=456 q=-0.0 size=N/A time=00:07:50.97 bitrate=N/A speed=  19x    frame=11552 fps=457 q=-0.0 size=N/A time=00:08:01.81 bitrate=N/A speed=19.1x    frame=11783 fps=457 q=-0.0 size=N/A time=00:08:11.44 bitrate=N/A speed=19.1x    frame=12026 fps=457 q=-0.0 size=N/A time=00:08:21.58 bitrate=N/A speed=19.1x    frame=12293 fps=458 q=-0.0 size=N/A time=00:08:32.72 bitrate=N/A speed=19.1x    frame=12505 fps=457 q=-0.0 size=N/A time=00:08:41.56 bitrate=N/A speed=19.1x    frame=12751 fps=457 q=-0.0 size=N/A time=00:08:51.82 bitrate=N/A speed=19.1x    frame=13005 fps=458 q=-0.0 size=N/A time=00:09:02.41 bitrate=N/A speed=19.1x    frame=13241 fps=458 q=-0.0 size=N/A time=00:09:12.26 bitrate=N/A speed=19.1x    frame=13519 fps=459 q=-0.0 size=N/A time=00:09:23.85 bitrate=N/A speed=19.2x    frame=13792 fps=461 q=-0.0 size=N/A time=00:09:35.24 bitrate=N/A speed=19.2x    frame=14067 fps=462 q=-0.0 size=N/A time=00:09:46.71 bitrate=N/A speed=19.3x    frame=14319 fps=462 q=-0.0 size=N/A time=00:09:57.22 bitrate=N/A speed=19.3x    frame=14597 fps=463 q=-0.0 size=N/A time=00:10:08.81 bitrate=N/A speed=19.3x    frame=14862 fps=464 q=-0.0 size=N/A time=00:10:19.86 bitrate=N/A speed=19.4x    frame=15140 fps=465 q=-0.0 size=N/A time=00:10:31.46 bitrate=N/A speed=19.4x    frame=15368 fps=465 q=-0.0 size=N/A time=00:10:40.97 bitrate=N/A speed=19.4x    frame=15597 fps=465 q=-0.0 size=N/A time=00:10:50.52 bitrate=N/A speed=19.4x    frame=15851 fps=465 q=-0.0 size=N/A time=00:11:01.11 bitrate=N/A speed=19.4x    frame=16084 fps=465 q=-0.0 size=N/A time=00:11:10.83 bitrate=N/A speed=19.4x    frame=16306 fps=464 q=-0.0 size=N/A time=00:11:20.09 bitrate=N/A speed=19.4x    frame=16537 fps=464 q=-0.0 size=N/A time=00:11:29.73 bitrate=N/A speed=19.4x    frame=16758 fps=464 q=-0.0 size=N/A time=00:11:38.94 bitrate=N/A speed=19.3x    frame=16999 fps=463 q=-0.0 size=N/A time=00:11:48.99 bitrate=N/A speed=19.3x    frame=17246 fps=464 q=-0.0 size=N/A time=00:11:59.30 bitrate=N/A speed=19.3x    frame=17490 fps=464 q=-0.0 size=N/A time=00:12:09.47 bitrate=N/A speed=19.3x    frame=17726 fps=464 q=-0.0 size=N/A time=00:12:19.32 bitrate=N/A speed=19.3x    frame=17976 fps=464 q=-0.0 size=N/A time=00:12:29.74 bitrate=N/A speed=19.4x    frame=18214 fps=464 q=-0.0 size=N/A time=00:12:39.67 bitrate=N/A speed=19.4x    frame=18461 fps=464 q=-0.0 size=N/A time=00:12:49.97 bitrate=N/A speed=19.4x    frame=18704 fps=464 q=-0.0 size=N/A time=00:13:00.11 bitrate=N/A speed=19.4x    frame=18954 fps=465 q=-0.0 size=N/A time=00:13:10.53 bitrate=N/A speed=19.4x    frame=19196 fps=465 q=-0.0 size=N/A time=00:13:20.63 bitrate=N/A speed=19.4x    frame=19420 fps=464 q=-0.0 size=N/A time=00:13:29.97 bitrate=N/A speed=19.4x    frame=19660 fps=464 q=-0.0 size=N/A time=00:13:39.98 bitrate=N/A speed=19.4x    frame=19928 fps=465 q=-0.0 size=N/A time=00:13:51.16 bitrate=N/A speed=19.4x    frame=20177 fps=465 q=-0.0 size=N/A time=00:14:01.54 bitrate=N/A speed=19.4x    frame=20417 fps=465 q=-0.0 size=N/A time=00:14:11.55 bitrate=N/A speed=19.4x    frame=20595 fps=464 q=-0.0 size=N/A time=00:14:18.98 bitrate=N/A speed=19.3x    frame=20783 fps=463 q=-0.0 size=N/A time=00:14:26.82 bitrate=N/A speed=19.3x    frame=21007 fps=462 q=-0.0 size=N/A time=00:14:36.16 bitrate=N/A speed=19.3x    frame=21267 fps=463 q=-0.0 size=N/A time=00:14:47.01 bitrate=N/A speed=19.3x    frame=21532 fps=463 q=-0.0 size=N/A time=00:14:58.06 bitrate=N/A speed=19.3x    frame=21818 fps=464 q=-0.0 size=N/A time=00:15:09.99 bitrate=N/A speed=19.4x    frame=22099 fps=465 q=-0.0 size=N/A time=00:15:21.71 bitrate=N/A speed=19.4x    frame=22344 fps=465 q=-0.0 size=N/A time=00:15:31.93 bitrate=N/A speed=19.4x    frame=22612 fps=466 q=-0.0 size=N/A time=00:15:43.10 bitrate=N/A speed=19.4x    frame=22863 fps=466 q=-0.0 size=N/A time=00:15:53.57 bitrate=N/A speed=19.4x    frame=23130 fps=467 q=-0.0 size=N/A time=00:16:04.71 bitrate=N/A speed=19.5x    frame=23369 fps=467 q=-0.0 size=N/A time=00:16:14.68 bitrate=N/A speed=19.5x    frame=23604 fps=466 q=-0.0 size=N/A time=00:16:24.48 bitrate=N/A speed=19.5x    frame=23798 fps=466 q=-0.0 size=N/A time=00:16:32.57 bitrate=N/A speed=19.4x    frame=24020 fps=465 q=-0.0 size=N/A time=00:16:41.83 bitrate=N/A speed=19.4x    frame=24255 fps=465 q=-0.0 size=N/A time=00:16:51.63 bitrate=N/A speed=19.4x    frame=24519 fps=466 q=-0.0 size=N/A time=00:17:02.64 bitrate=N/A speed=19.4x    frame=24776 fps=466 q=-0.0 size=N/A time=00:17:13.36 bitrate=N/A speed=19.4x    frame=24945 fps=465 q=-0.0 size=N/A time=00:17:20.41 bitrate=N/A speed=19.4x    frame=25175 fps=464 q=-0.0 size=N/A time=00:17:30.00 bitrate=N/A speed=19.4x    frame=25399 fps=464 q=-0.0 size=N/A time=00:17:39.34 bitrate=N/A speed=19.4x    frame=25666 fps=465 q=-0.0 size=N/A time=00:17:50.48 bitrate=N/A speed=19.4x    frame=25932 fps=465 q=-0.0 size=N/A time=00:18:01.58 bitrate=N/A speed=19.4x    frame=26199 fps=466 q=-0.0 size=N/A time=00:18:12.71 bitrate=N/A speed=19.4x    frame=26460 fps=466 q=-0.0 size=N/A time=00:18:23.60 bitrate=N/A speed=19.4x    frame=26714 fps=466 q=-0.0 size=N/A time=00:18:34.19 bitrate=N/A speed=19.4x    frame=26999 fps=467 q=-0.0 size=N/A time=00:18:46.08 bitrate=N/A speed=19.5x    frame=27282 fps=468 q=-0.0 size=N/A time=00:18:57.88 bitrate=N/A speed=19.5x    frame=27548 fps=468 q=-0.0 size=N/A time=00:19:08.98 bitrate=N/A speed=19.5x    frame=27824 fps=469 q=-0.0 size=N/A time=00:19:20.49 bitrate=N/A speed=19.6x    frame=28103 fps=469 q=-0.0 size=N/A time=00:19:32.12 bitrate=N/A speed=19.6x    frame=28371 fps=470 q=-0.0 size=N/A time=00:19:43.30 bitrate=N/A speed=19.6x    frame=28644 fps=470 q=-0.0 size=N/A time=00:19:54.69 bitrate=N/A speed=19.6x    frame=28933 fps=471 q=-0.0 size=N/A time=00:20:06.74 bitrate=N/A speed=19.6x    frame=29202 fps=471 q=-0.0 size=N/A time=00:20:17.96 bitrate=N/A speed=19.7x    frame=29472 fps=472 q=-0.0 size=N/A time=00:20:29.22 bitrate=N/A speed=19.7x    frame=29723 fps=472 q=-0.0 size=N/A time=00:20:39.69 bitrate=N/A speed=19.7x    frame=29927 fps=471 q=-0.0 size=N/A time=00:20:48.20 bitrate=N/A speed=19.7x    frame=30155 fps=471 q=-0.0 size=N/A time=00:20:57.71 bitrate=N/A speed=19.7x    frame=30382 fps=471 q=-0.0 size=N/A time=00:21:07.18 bitrate=N/A speed=19.6x    frame=30537 fps=470 q=-0.0 size=N/A time=00:21:13.64 bitrate=N/A speed=19.6x    frame=30704 fps=468 q=-0.0 size=N/A time=00:21:20.61 bitrate=N/A speed=19.5x    frame=30913 fps=468 q=-0.0 size=N/A time=00:21:29.32 bitrate=N/A speed=19.5x    frame=31088 fps=467 q=-0.0 size=N/A time=00:21:36.62 bitrate=N/A speed=19.5x    frame=31267 fps=466 q=-0.0 size=N/A time=00:21:44.09 bitrate=N/A speed=19.4x    frame=31433 fps=465 q=-0.0 size=N/A time=00:21:51.01 bitrate=N/A speed=19.4x    frame=31595 fps=464 q=-0.0 size=N/A time=00:21:57.77 bitrate=N/A speed=19.3x    frame=31791 fps=463 q=-0.0 size=N/A time=00:22:05.94 bitrate=N/A speed=19.3x    frame=32028 fps=463 q=-0.0 size=N/A time=00:22:15.83 bitrate=N/A speed=19.3x    frame=32286 fps=463 q=-0.0 size=N/A time=00:22:26.59 bitrate=N/A speed=19.3x    frame=32539 fps=464 q=-0.0 size=N/A time=00:22:37.14 bitrate=N/A speed=19.3x    frame=32790 fps=464 q=-0.0 size=N/A time=00:22:47.61 bitrate=N/A speed=19.3x    frame=33051 fps=464 q=-0.0 size=N/A time=00:22:58.50 bitrate=N/A speed=19.4x    frame=33318 fps=464 q=-0.0 size=N/A time=00:23:09.63 bitrate=N/A speed=19.4x    frame=33570 fps=465 q=-0.0 size=N/A time=00:23:20.14 bitrate=N/A speed=19.4x    frame=33842 fps=465 q=-0.0 size=N/A time=00:23:31.49 bitrate=N/A speed=19.4x    frame=34104 fps=465 q=-0.0 size=N/A time=00:23:42.42 bitrate=N/A speed=19.4x    frame=34376 fps=466 q=-0.0 size=N/A time=00:23:53.76 bitrate=N/A speed=19.4x    [Parsed_psnr_10 @ 000001b656a3c9c0] PSNR y:47.853706 u:50.023193 v:49.570637 average:48.408665 min:35.502085 max:inf
[out#0/null @ 000001b649ce4e80] video:14851KiB audio:270332KiB subtitle:0KiB other streams:0KiB global headers:0KiB muxing overhead: unknown
frame=34563 fps=466 q=-0.0 Lsize=N/A time=00:24:01.56 bitrate=N/A speed=19.4x    
